<svg width="589" height="663" viewBox="0 0 589 663" fill="none" xmlns="http://www.w3.org/2000/svg">
<path d="M38.7 29.7725C52.1733 29.7725 62.8158 31.4208 70.6275 34.7175C78.4392 37.9425 83.8858 42.4575 86.9675 48.2625C90.1208 53.9958 91.6975 61.055 91.6975 69.44C91.6975 77.395 89.9058 84.3467 86.3225 90.295C82.7392 96.2433 77.3642 100.866 70.1975 104.162C63.0308 107.387 54.2158 109 43.7525 109C37.3742 109 30.8883 109 24.295 109C17.7017 109 11.0367 108.964 4.3 108.892C4.87333 94.7742 5.16 81.6233 5.16 69.44C5.16 57.1133 4.87333 44.2492 4.3 30.8475C12.8283 30.1308 24.295 29.7725 38.7 29.7725ZM46.7625 87.6075C53.4275 87.6075 57.8708 85.995 60.0925 82.77C62.3142 79.545 63.425 75.1017 63.425 69.44C63.425 63.9933 62.2425 59.5858 59.8775 56.2175C57.5842 52.8492 53.2125 51.165 46.7625 51.165C39.8108 51.165 34.615 51.38 31.175 51.81V87.6075H46.7625ZM111.432 43.9625C106.917 43.9625 103.549 42.8517 101.327 40.63C99.1772 38.4083 98.1022 35.5058 98.1022 31.9225C98.1022 28.4108 99.1772 25.5083 101.327 23.215C103.549 20.9217 106.917 19.775 111.432 19.775C115.732 19.775 119.029 20.9575 121.322 23.3225C123.615 25.6158 124.762 28.4825 124.762 31.9225C124.762 35.5058 123.651 38.4083 121.43 40.63C119.208 42.8517 115.875 43.9625 111.432 43.9625ZM98.9622 109C99.4638 97.4617 99.7147 87.93 99.7147 80.405C99.7147 71.4467 99.428 61.4133 98.8547 50.305H124.655C124.081 60.9833 123.795 71.0167 123.795 80.405C123.795 88.2883 124.045 97.82 124.547 109H98.9622ZM165.898 110.075C159.878 110.075 153.75 109.251 147.515 107.602C141.352 105.882 135.547 103.302 130.1 99.8625L141.388 84.49C144.684 86.855 148.662 88.7183 153.32 90.08C157.979 91.37 161.992 92.015 165.36 92.015C168.585 92.015 171.058 91.585 172.778 90.725C174.569 89.7933 175.465 88.6108 175.465 87.1775C175.465 86.0308 175.035 85.135 174.175 84.49C173.315 83.845 172.133 83.5225 170.628 83.5225C169.696 83.5225 168.621 83.5583 167.403 83.63C166.256 83.7017 165.324 83.7733 164.608 83.845C160.881 84.275 157.047 84.49 153.105 84.49C146.727 84.49 141.531 83.3075 137.518 80.9425C133.576 78.5058 131.605 74.5642 131.605 69.1175C131.605 62.8108 134.579 57.9375 140.528 54.4975C146.476 50.9858 155.219 49.23 166.758 49.23C172.419 49.23 178.117 50.0542 183.85 51.7025C189.655 53.2792 194.779 55.68 199.223 58.905L186.86 71.375C182.775 69.225 178.941 67.72 175.358 66.86C171.846 65.9283 168.299 65.4625 164.715 65.4625C162.207 65.4625 160.057 65.9642 158.265 66.9675C156.474 67.9708 155.578 69.1175 155.578 70.4075C155.578 71.4108 155.936 72.1992 156.653 72.7725C157.441 73.3458 158.444 73.6325 159.663 73.6325C160.881 73.6325 162.565 73.525 164.715 73.31C169.947 72.9517 173.853 72.7725 176.433 72.7725C183.886 72.7725 189.655 74.0267 193.74 76.535C197.825 79.0433 199.868 82.8775 199.868 88.0375C199.868 95.7775 196.858 101.403 190.838 104.915C184.818 108.355 176.504 110.075 165.898 110.075ZM246.091 109C246.521 98.465 246.736 88.7542 246.736 79.8675C246.736 76.7142 245.948 74.2058 244.371 72.3425C242.866 70.4792 240.931 69.5475 238.566 69.5475C236.058 69.5475 233.908 70.7658 232.116 73.2025C230.396 75.6392 229.536 78.9717 229.536 83.2L229.429 82.985C229.429 94.6667 229.572 103.338 229.859 109H204.166C204.739 98.68 205.026 84.705 205.026 67.075C205.026 49.445 204.739 35.47 204.166 25.15H229.751L229.859 58.26L229.751 63.9575C231.471 58.9408 234.015 55.25 237.384 52.885C240.824 50.4483 244.694 49.23 248.994 49.23C253.294 49.23 257.02 50.1975 260.174 52.1325C263.327 53.9958 265.692 56.54 267.269 59.765C268.917 62.99 269.741 66.6092 269.741 70.6225V86.1025C269.741 95.6342 269.92 103.267 270.279 109H246.091ZM310.087 29.7725C323.56 29.7725 334.203 31.4208 342.015 34.7175C349.826 37.9425 355.273 42.4575 358.355 48.2625C361.508 53.9958 363.085 61.055 363.085 69.44C363.085 77.395 361.293 84.3467 357.71 90.295C354.126 96.2433 348.751 100.866 341.585 104.162C334.418 107.387 325.603 109 315.14 109C308.761 109 302.275 109 295.682 109C289.089 109 282.424 108.964 275.687 108.892C276.26 94.7742 276.547 81.6233 276.547 69.44C276.547 57.1133 276.26 44.2492 275.687 30.8475C284.215 30.1308 295.682 29.7725 310.087 29.7725ZM318.15 87.6075C324.815 87.6075 329.258 85.995 331.48 82.77C333.701 79.545 334.812 75.1017 334.812 69.44C334.812 63.9933 333.63 59.5858 331.265 56.2175C328.971 52.8492 324.6 51.165 318.15 51.165C311.198 51.165 306.002 51.38 302.562 51.81V87.6075H318.15ZM437.322 91.155C437.322 93.5917 437.608 95.3117 438.182 96.315C438.755 97.3183 439.902 98.035 441.622 98.465L441.192 108.57C438.898 108.928 436.892 109.179 435.172 109.323C433.523 109.466 431.302 109.538 428.507 109.538C422.343 109.538 418.258 108.176 416.252 105.453C414.245 102.657 413.242 99.11 413.242 94.81V92.1225C411.163 97.9992 408.118 102.371 404.104 105.237C400.163 108.104 395.11 109.538 388.947 109.538C381.78 109.538 376.369 108.104 372.714 105.237C369.131 102.371 367.339 98.1067 367.339 92.445C367.339 87.7867 368.88 84.1317 371.962 81.48C375.043 78.8283 379.809 77.0008 386.259 75.9975C380.813 72.1275 375.366 68.7592 369.919 65.8925C374.219 60.4458 379.128 56.325 384.647 53.53C390.165 50.6633 396.866 49.23 404.749 49.23C415.786 49.23 423.956 51.6308 429.259 56.4325C434.634 61.1625 437.322 68.4725 437.322 78.3625V91.155ZM407.007 68.15C403.352 68.15 400.127 68.7592 397.332 69.9775C394.537 71.1958 392.028 73.0233 389.807 75.46C394.107 74.9583 399.482 74.7075 405.932 74.7075C408.583 74.7075 410.447 74.385 411.522 73.74C412.597 73.095 413.134 72.2708 413.134 71.2675C413.134 70.4075 412.597 69.6908 411.522 69.1175C410.447 68.4725 408.942 68.15 407.007 68.15ZM395.719 92.015C399.733 92.015 403.352 91.2625 406.577 89.7575C409.802 88.1808 412.023 86.1383 413.242 83.63V80.835C411.522 81.695 409.623 82.3758 407.544 82.8775C405.466 83.3075 402.958 83.7375 400.019 84.1675L396.149 84.8125C392.136 85.6008 390.129 86.9625 390.129 88.8975C390.129 90.9758 391.993 92.015 395.719 92.015ZM479.592 110.075C473.572 110.075 467.444 109.251 461.209 107.602C455.046 105.882 449.241 103.302 443.794 99.8625L455.082 84.49C458.379 86.855 462.356 88.7183 467.014 90.08C471.673 91.37 475.686 92.015 479.054 92.015C482.279 92.015 484.752 91.585 486.472 90.725C488.264 89.7933 489.159 88.6108 489.159 87.1775C489.159 86.0308 488.729 85.135 487.869 84.49C487.009 83.845 485.827 83.5225 484.322 83.5225C483.39 83.5225 482.315 83.5583 481.097 83.63C479.95 83.7017 479.019 83.7733 478.302 83.845C474.575 84.275 470.741 84.49 466.799 84.49C460.421 84.49 455.225 83.3075 451.212 80.9425C447.27 78.5058 445.299 74.5642 445.299 69.1175C445.299 62.8108 448.274 57.9375 454.222 54.4975C460.17 50.9858 468.914 49.23 480.452 49.23C486.114 49.23 491.811 50.0542 497.544 51.7025C503.349 53.2792 508.474 55.68 512.917 58.905L500.554 71.375C496.469 69.225 492.635 67.72 489.052 66.86C485.54 65.9283 481.993 65.4625 478.409 65.4625C475.901 65.4625 473.751 65.9642 471.959 66.9675C470.168 67.9708 469.272 69.1175 469.272 70.4075C469.272 71.4108 469.63 72.1992 470.347 72.7725C471.135 73.3458 472.139 73.6325 473.357 73.6325C474.575 73.6325 476.259 73.525 478.409 73.31C483.641 72.9517 487.547 72.7725 490.127 72.7725C497.58 72.7725 503.349 74.0267 507.434 76.535C511.519 79.0433 513.562 82.8775 513.562 88.0375C513.562 95.7775 510.552 101.403 504.532 104.915C498.512 108.355 490.199 110.075 479.592 110.075ZM559.785 109C560.215 98.465 560.43 88.7542 560.43 79.8675C560.43 76.7142 559.642 74.2058 558.065 72.3425C556.56 70.4792 554.625 69.5475 552.26 69.5475C549.752 69.5475 547.602 70.7658 545.81 73.2025C544.09 75.6392 543.23 78.9717 543.23 83.2L543.123 82.985C543.123 94.6667 543.266 103.338 543.553 109H517.86C518.434 98.68 518.72 84.705 518.72 67.075C518.72 49.445 518.434 35.47 517.86 25.15H543.445L543.553 58.26L543.445 63.9575C545.165 58.9408 547.709 55.25 551.078 52.885C554.518 50.4483 558.388 49.23 562.688 49.23C566.988 49.23 570.714 50.1975 573.868 52.1325C577.021 53.9958 579.386 56.54 580.963 59.765C582.611 62.99 583.435 66.6092 583.435 70.6225V86.1025C583.435 95.6342 583.614 103.267 583.973 109H559.785Z" fill="white"/>
<path d="M62.0702 165.5V163.039C62.5377 163.085 62.9227 163.062 63.2252 162.97C63.5369 162.869 63.7981 162.677 64.009 162.392C64.2198 162.099 64.3986 161.677 64.5452 161.127C64.7011 160.577 64.8523 159.867 64.999 158.996C65.2006 157.887 65.3702 156.746 65.5077 155.572C65.6452 154.399 65.7598 153.235 65.8515 152.08C65.9523 150.916 66.0348 149.793 66.099 148.711C66.1631 147.63 66.2136 146.626 66.2502 145.7H79.244V165.5H76.3702V148.409H68.9452C68.8994 149.142 68.8444 149.962 68.7802 150.87C68.7161 151.777 68.6381 152.74 68.5465 153.757C68.4548 154.775 68.3402 155.825 68.2027 156.906C68.0744 157.988 67.9094 159.074 67.7077 160.165C67.5427 161.1 67.3411 161.943 67.1027 162.695C66.8644 163.447 66.5436 164.075 66.1402 164.579C65.7369 165.074 65.2098 165.404 64.559 165.569C63.9081 165.743 63.0786 165.72 62.0702 165.5ZM84.5609 172.1L87.4347 164.276L87.4759 166.586L80.9997 150.65H83.9972L88.8372 162.956H87.9572L92.5772 150.65H95.4922L87.2972 172.1H84.5609ZM105.882 165.5V160.33C105.378 160.587 104.787 160.797 104.109 160.962C103.43 161.118 102.715 161.196 101.964 161.196C100.442 161.196 99.2183 160.857 98.2924 160.179C97.3758 159.491 96.7799 158.501 96.5049 157.209C96.4316 156.824 96.3766 156.43 96.3399 156.026C96.3033 155.614 96.2804 155.238 96.2712 154.899C96.2712 154.56 96.2712 154.307 96.2712 154.142V150.65H99.1862V154.142C99.1862 154.381 99.1954 154.697 99.2137 155.091C99.232 155.476 99.2824 155.852 99.3649 156.219C99.5391 157.044 99.8874 157.658 100.41 158.061C100.932 158.455 101.67 158.652 102.624 158.652C103.311 158.652 103.93 158.565 104.48 158.391C105.039 158.208 105.507 157.974 105.882 157.69V150.65H108.784V165.5H105.882ZM112.082 165.5V150.65H114.846V162.915H119.507V150.65H122.271V162.915H126.918V150.65H129.682V165.5H112.082ZM145.489 150.65V165.5H142.725V155.174L135.3 165.5H132.962V150.65H135.726V160.77L143.165 150.65H145.489ZM155.409 148.945C154.684 148.945 154.02 148.766 153.415 148.409C152.819 148.051 152.342 147.575 151.985 146.979C151.627 146.383 151.449 145.718 151.449 144.985H153.731C153.731 145.443 153.896 145.837 154.226 146.167C154.556 146.497 154.95 146.662 155.409 146.662C155.876 146.662 156.27 146.497 156.591 146.167C156.921 145.837 157.086 145.443 157.086 144.985H159.369C159.369 145.718 159.19 146.383 158.832 146.979C158.475 147.575 157.994 148.051 157.389 148.409C156.793 148.766 156.133 148.945 155.409 148.945ZM161.294 150.65V165.5H158.53V155.174L151.105 165.5H148.767V150.65H151.531V160.77L158.97 150.65H161.294ZM175.894 165.913C174.372 165.913 173.08 165.573 172.017 164.895C170.953 164.217 170.137 163.286 169.569 162.104C169.01 160.921 168.726 159.578 168.717 158.075C168.726 156.544 169.019 155.192 169.597 154.019C170.174 152.836 170.999 151.91 172.072 151.241C173.144 150.572 174.432 150.237 175.935 150.237C177.558 150.237 178.942 150.641 180.088 151.447C181.243 152.254 182.004 153.359 182.37 154.761L179.51 155.586C179.226 154.752 178.759 154.106 178.108 153.647C177.466 153.18 176.728 152.946 175.894 152.946C174.95 152.946 174.175 153.171 173.57 153.62C172.965 154.06 172.516 154.665 172.223 155.435C171.929 156.205 171.778 157.085 171.769 158.075C171.778 159.606 172.127 160.843 172.814 161.787C173.511 162.732 174.537 163.204 175.894 163.204C176.82 163.204 177.567 162.993 178.135 162.571C178.713 162.14 179.153 161.526 179.455 160.729L182.37 161.416C181.884 162.865 181.082 163.978 179.964 164.757C178.846 165.528 177.489 165.913 175.894 165.913ZM184.608 165.5V150.65H197.134V165.5H194.26V153.359H187.481V165.5H184.608ZM206.875 165.913C205.39 165.913 204.102 165.578 203.011 164.909C201.921 164.24 201.077 163.318 200.481 162.145C199.895 160.962 199.601 159.601 199.601 158.061C199.601 156.512 199.904 155.151 200.509 153.977C201.114 152.795 201.962 151.878 203.053 151.227C204.143 150.567 205.418 150.237 206.875 150.237C208.36 150.237 209.648 150.572 210.739 151.241C211.83 151.91 212.673 152.832 213.269 154.005C213.865 155.178 214.163 156.53 214.163 158.061C214.163 159.61 213.86 160.976 213.255 162.159C212.659 163.332 211.816 164.253 210.725 164.922C209.634 165.582 208.351 165.913 206.875 165.913ZM206.875 163.204C208.296 163.204 209.355 162.727 210.051 161.774C210.757 160.811 211.11 159.574 211.11 158.061C211.11 156.512 210.753 155.275 210.038 154.349C209.332 153.414 208.278 152.946 206.875 152.946C205.913 152.946 205.12 153.166 204.496 153.606C203.873 154.037 203.41 154.637 203.108 155.407C202.805 156.168 202.654 157.053 202.654 158.061C202.654 159.62 203.011 160.866 203.726 161.801C204.441 162.736 205.491 163.204 206.875 163.204ZM222.987 165.913C221.465 165.913 220.173 165.573 219.109 164.895C218.046 164.217 217.23 163.286 216.662 162.104C216.103 160.921 215.818 159.578 215.809 158.075C215.818 156.544 216.112 155.192 216.689 154.019C217.267 152.836 218.092 151.91 219.164 151.241C220.237 150.572 221.525 150.237 223.028 150.237C224.65 150.237 226.035 150.641 227.18 151.447C228.335 152.254 229.096 153.359 229.463 154.761L226.603 155.586C226.319 154.752 225.851 154.106 225.2 153.647C224.559 153.18 223.821 152.946 222.987 152.946C222.043 152.946 221.268 153.171 220.663 153.62C220.058 154.06 219.609 154.665 219.315 155.435C219.022 156.205 218.871 157.085 218.862 158.075C218.871 159.606 219.219 160.843 219.907 161.787C220.603 162.732 221.63 163.204 222.987 163.204C223.913 163.204 224.66 162.993 225.228 162.571C225.805 162.14 226.245 161.526 226.548 160.729L229.463 161.416C228.977 162.865 228.175 163.978 227.057 164.757C225.938 165.528 224.582 165.913 222.987 165.913ZM237.76 165.913C236.275 165.913 234.987 165.578 233.896 164.909C232.805 164.24 231.962 163.318 231.366 162.145C230.78 160.962 230.486 159.601 230.486 158.061C230.486 156.512 230.789 155.151 231.394 153.977C231.999 152.795 232.847 151.878 233.937 151.227C235.028 150.567 236.302 150.237 237.76 150.237C239.245 150.237 240.533 150.572 241.624 151.241C242.715 151.91 243.558 152.832 244.154 154.005C244.75 155.178 245.047 156.53 245.047 158.061C245.047 159.61 244.745 160.976 244.14 162.159C243.544 163.332 242.701 164.253 241.61 164.922C240.519 165.582 239.236 165.913 237.76 165.913ZM237.76 163.204C239.181 163.204 240.24 162.727 240.936 161.774C241.642 160.811 241.995 159.574 241.995 158.061C241.995 156.512 241.637 155.275 240.922 154.349C240.217 153.414 239.162 152.946 237.76 152.946C236.797 152.946 236.005 153.166 235.381 153.606C234.758 154.037 234.295 154.637 233.992 155.407C233.69 156.168 233.539 157.053 233.539 158.061C233.539 159.62 233.896 160.866 234.611 161.801C235.326 162.736 236.376 163.204 237.76 163.204ZM253.624 165.926C252.212 165.917 251.012 165.61 250.022 165.005C249.032 164.4 248.257 163.529 247.698 162.392C247.148 161.247 246.827 159.867 246.735 158.254C246.689 157.475 246.694 156.613 246.749 155.669C246.804 154.715 246.905 153.794 247.052 152.905C247.207 152.016 247.404 151.273 247.643 150.677C247.909 150.017 248.271 149.412 248.729 148.862C249.187 148.303 249.692 147.836 250.242 147.46C250.828 147.057 251.479 146.745 252.194 146.525C252.909 146.296 253.656 146.117 254.435 145.989C255.224 145.86 256.017 145.75 256.814 145.659C257.621 145.558 258.404 145.434 259.165 145.287L259.44 147.859C258.936 147.978 258.34 148.074 257.653 148.147C256.974 148.221 256.269 148.303 255.535 148.395C254.811 148.487 254.119 148.615 253.459 148.78C252.799 148.945 252.226 149.179 251.74 149.481C251.053 149.903 250.526 150.517 250.159 151.324C249.802 152.13 249.586 153.006 249.513 153.95C250.081 153.088 250.805 152.47 251.685 152.094C252.565 151.709 253.477 151.516 254.422 151.516C255.742 151.516 256.878 151.828 257.832 152.451C258.794 153.075 259.532 153.922 260.045 154.995C260.559 156.067 260.815 157.282 260.815 158.639C260.815 160.105 260.513 161.389 259.908 162.489C259.312 163.58 258.473 164.432 257.392 165.046C256.31 165.651 255.054 165.945 253.624 165.926ZM253.775 163.217C255.095 163.217 256.09 162.81 256.759 161.994C257.437 161.178 257.777 160.092 257.777 158.735C257.777 157.342 257.428 156.246 256.732 155.449C256.035 154.651 255.049 154.252 253.775 154.252C252.483 154.252 251.493 154.651 250.805 155.449C250.127 156.246 249.788 157.342 249.788 158.735C249.788 160.147 250.132 161.247 250.819 162.035C251.507 162.823 252.492 163.217 253.775 163.217ZM275.224 165.913C273.803 165.913 272.611 165.569 271.649 164.881C270.686 164.185 269.958 163.245 269.463 162.062C268.968 160.88 268.72 159.546 268.72 158.061C268.72 156.576 268.963 155.242 269.449 154.06C269.944 152.877 270.668 151.947 271.621 151.269C272.584 150.581 273.766 150.237 275.169 150.237C276.562 150.237 277.763 150.581 278.771 151.269C279.789 151.947 280.573 152.877 281.123 154.06C281.673 155.233 281.948 156.567 281.948 158.061C281.948 159.546 281.673 160.885 281.123 162.076C280.582 163.259 279.807 164.194 278.799 164.881C277.8 165.569 276.608 165.913 275.224 165.913ZM268.239 172.1V150.65H270.796V161.334H271.126V172.1H268.239ZM274.825 163.314C275.742 163.314 276.498 163.08 277.094 162.612C277.699 162.145 278.148 161.517 278.441 160.729C278.744 159.931 278.895 159.042 278.895 158.061C278.895 157.09 278.744 156.21 278.441 155.421C278.148 154.633 277.694 154.005 277.08 153.537C276.466 153.07 275.682 152.836 274.729 152.836C273.83 152.836 273.088 153.056 272.501 153.496C271.924 153.936 271.493 154.55 271.209 155.339C270.934 156.127 270.796 157.035 270.796 158.061C270.796 159.088 270.934 159.995 271.209 160.784C271.484 161.572 271.919 162.191 272.515 162.64C273.111 163.089 273.881 163.314 274.825 163.314ZM291.02 165.913C289.544 165.913 288.247 165.592 287.128 164.95C286.019 164.299 285.153 163.396 284.53 162.241C283.916 161.077 283.608 159.73 283.608 158.199C283.608 156.576 283.911 155.169 284.516 153.977C285.13 152.786 285.983 151.865 287.073 151.214C288.164 150.563 289.434 150.237 290.882 150.237C292.395 150.237 293.683 150.59 294.746 151.296C295.809 151.993 296.602 152.987 297.125 154.28C297.656 155.572 297.867 157.108 297.757 158.886H294.883V157.841C294.865 156.118 294.535 154.844 293.894 154.019C293.261 153.194 292.294 152.781 290.992 152.781C289.553 152.781 288.471 153.235 287.747 154.142C287.023 155.05 286.661 156.361 286.661 158.075C286.661 159.707 287.023 160.972 287.747 161.87C288.471 162.759 289.516 163.204 290.882 163.204C291.781 163.204 292.555 163.002 293.206 162.599C293.866 162.186 294.379 161.6 294.746 160.839L297.565 161.732C296.987 163.062 296.112 164.093 294.938 164.826C293.765 165.55 292.459 165.913 291.02 165.913ZM285.726 158.886V156.645H296.327V158.886H285.726ZM300.278 165.5V150.65H303.042V162.915H307.703V150.65H310.467V162.915H315.115V150.65H317.878V165.5H300.278ZM333.685 150.65V165.5H330.922V155.174L323.497 165.5H321.159V150.65H323.923V160.77L331.362 150.65H333.685ZM340.814 165.5V153.235H335.74V150.65H348.762V153.235H343.688V165.5H340.814ZM350.809 165.5V150.65H353.696V155.806H356.625C357.047 155.806 357.496 155.815 357.972 155.834C358.458 155.852 358.875 155.898 359.224 155.971C360.021 156.136 360.709 156.411 361.286 156.796C361.873 157.181 362.327 157.695 362.647 158.336C362.968 158.969 363.129 159.748 363.129 160.674C363.129 161.966 362.789 162.997 362.111 163.767C361.442 164.528 360.534 165.042 359.389 165.307C359.022 165.39 358.587 165.445 358.082 165.472C357.587 165.491 357.134 165.5 356.721 165.5H350.809ZM353.696 163.19H356.886C357.115 163.19 357.377 163.181 357.67 163.162C357.963 163.144 358.234 163.103 358.481 163.039C358.921 162.91 359.315 162.649 359.664 162.255C360.012 161.861 360.186 161.334 360.186 160.674C360.186 159.995 360.012 159.455 359.664 159.051C359.324 158.648 358.894 158.387 358.371 158.267C358.124 158.203 357.872 158.162 357.615 158.144C357.358 158.125 357.115 158.116 356.886 158.116H353.696V163.19ZM365.332 168.786L365.511 167.508C365.905 167.535 366.212 167.462 366.432 167.288C366.652 167.113 366.798 166.87 366.872 166.559C366.945 166.247 366.959 165.894 366.913 165.5H365.332V162.186H368.371V165.775C368.371 166.857 368.109 167.673 367.587 168.223C367.073 168.773 366.322 168.96 365.332 168.786ZM377.975 165.5L377.988 150.65H380.903V157.8L386.733 150.65H390.391L384.231 158.075L391.023 165.5H387.118L380.903 158.35V165.5H377.975ZM393.867 172.1L396.741 164.276L396.782 166.586L390.306 150.65H393.303L398.143 162.956H397.263L401.883 150.65H404.798L396.603 172.1H393.867ZM404.765 168.8V163.19C405.581 163.19 406.163 162.92 406.512 162.379C406.869 161.829 407.153 160.898 407.364 159.587C407.492 158.79 407.598 157.942 407.68 157.044C407.772 156.145 407.85 155.174 407.914 154.129C407.978 153.075 408.042 151.915 408.107 150.65H418.749V163.19H420.207V168.8H417.484V165.5H407.502V168.8H404.765ZM408.877 163.19H415.862V152.96H410.664C410.627 153.565 410.586 154.188 410.54 154.83C410.504 155.472 410.458 156.109 410.403 156.741C410.357 157.374 410.302 157.979 410.238 158.556C410.174 159.134 410.1 159.656 410.018 160.124C409.908 160.848 409.775 161.453 409.619 161.939C409.472 162.425 409.225 162.842 408.877 163.19ZM426.589 165.913C425.489 165.913 424.568 165.711 423.825 165.307C423.083 164.895 422.519 164.354 422.134 163.685C421.758 163.007 421.57 162.264 421.57 161.458C421.57 160.706 421.703 160.046 421.969 159.477C422.235 158.909 422.629 158.428 423.152 158.034C423.674 157.63 424.316 157.305 425.077 157.057C425.737 156.865 426.484 156.695 427.318 156.549C428.152 156.402 429.027 156.265 429.944 156.136C430.87 156.008 431.787 155.88 432.694 155.751L431.649 156.329C431.667 155.165 431.42 154.303 430.907 153.744C430.402 153.175 429.532 152.891 428.294 152.891C427.515 152.891 426.8 153.075 426.149 153.441C425.498 153.799 425.045 154.395 424.788 155.229L422.107 154.404C422.473 153.13 423.17 152.117 424.197 151.365C425.232 150.613 426.607 150.237 428.322 150.237C429.651 150.237 430.806 150.467 431.787 150.925C432.777 151.374 433.501 152.089 433.959 153.07C434.197 153.556 434.344 154.069 434.399 154.61C434.454 155.151 434.482 155.733 434.482 156.356V165.5H431.938V162.104L432.433 162.544C431.819 163.68 431.035 164.528 430.082 165.087C429.137 165.638 427.973 165.913 426.589 165.913ZM427.098 163.561C427.914 163.561 428.615 163.419 429.202 163.135C429.788 162.842 430.26 162.47 430.618 162.021C430.975 161.572 431.209 161.105 431.319 160.619C431.475 160.179 431.562 159.684 431.58 159.134C431.608 158.584 431.622 158.144 431.622 157.814L432.557 158.157C431.649 158.295 430.824 158.419 430.082 158.529C429.339 158.639 428.665 158.749 428.06 158.859C427.465 158.96 426.933 159.083 426.465 159.23C426.071 159.367 425.718 159.532 425.407 159.725C425.104 159.917 424.861 160.151 424.678 160.426C424.504 160.701 424.417 161.036 424.417 161.43C424.417 161.815 424.513 162.172 424.705 162.502C424.898 162.823 425.191 163.08 425.585 163.272C425.98 163.465 426.484 163.561 427.098 163.561ZM442.444 165.5V150.65H454.97V165.5H452.096V153.359H445.318V165.5H442.444ZM464.711 165.913C463.226 165.913 461.938 165.578 460.848 164.909C459.757 164.24 458.913 163.318 458.318 162.145C457.731 160.962 457.438 159.601 457.438 158.061C457.438 156.512 457.74 155.151 458.345 153.977C458.95 152.795 459.798 151.878 460.889 151.227C461.98 150.567 463.254 150.237 464.711 150.237C466.196 150.237 467.484 150.572 468.575 151.241C469.666 151.91 470.509 152.832 471.105 154.005C471.701 155.178 471.999 156.53 471.999 158.061C471.999 159.61 471.696 160.976 471.091 162.159C470.495 163.332 469.652 164.253 468.561 164.922C467.47 165.582 466.187 165.913 464.711 165.913ZM464.711 163.204C466.132 163.204 467.191 162.727 467.888 161.774C468.593 160.811 468.946 159.574 468.946 158.061C468.946 156.512 468.589 155.275 467.874 154.349C467.168 153.414 466.114 152.946 464.711 152.946C463.749 152.946 462.956 153.166 462.333 153.606C461.709 154.037 461.246 154.637 460.944 155.407C460.641 156.168 460.49 157.053 460.49 158.061C460.49 159.62 460.848 160.866 461.563 161.801C462.278 162.736 463.327 163.204 464.711 163.204ZM481.098 148.945C480.374 148.945 479.709 148.766 479.104 148.409C478.508 148.051 478.032 147.575 477.674 146.979C477.317 146.383 477.138 145.718 477.138 144.985H479.42C479.42 145.443 479.585 145.837 479.915 146.167C480.245 146.497 480.639 146.662 481.098 146.662C481.565 146.662 481.959 146.497 482.28 146.167C482.61 145.837 482.775 145.443 482.775 144.985H485.058C485.058 145.718 484.879 146.383 484.522 146.979C484.164 147.575 483.683 148.051 483.078 148.409C482.482 148.766 481.822 148.945 481.098 148.945ZM486.983 150.65V165.5H484.219V155.174L476.794 165.5H474.457V150.65H477.22V160.77L484.659 150.65H486.983ZM494.112 165.5V153.235H489.038V150.65H502.059V153.235H496.985V165.5H494.112ZM516.632 150.65V165.5H513.869V155.174L506.444 165.5H504.106V150.65H506.87V160.77L514.309 150.65H516.632ZM521.3 165.5V162.709H524.174V165.5H521.3ZM521.3 160.55V145.7H524.174V160.55H521.3Z" fill="white"/>
<path d="M208.02 537.513C197.238 503.497 199.193 426.646 231.558 415.442L232.251 415.285C198.184 403.973 193.662 394.369 180.167 329.84C164.804 256.381 239.764 243.674 268.178 236.282C300.056 229.583 335.148 208.301 361.732 268.852C390.028 333.3 400.419 351.224 384.711 378.713C377.703 386.948 360.914 402.304 339.666 411.904C374.565 433.633 425.982 503.23 417.702 544.354C416.889 548.389 413.647 551.386 409.604 552.162C402.154 553.591 391.012 554.421 380.419 551.444C380.632 556.848 380.659 561.722 380.553 565.823C378.705 592.619 370.712 647.736 353.526 653.834C336.34 659.932 308.943 654.527 297.393 651.062C292.958 657.715 268.749 660.302 257.199 660.764C247.035 660.764 223.796 659.378 212.154 653.834C200.511 648.29 200.373 599.435 201.759 575.701C196.196 575.477 203.955 564.662 209.117 556.437C212.671 550.775 210.04 543.885 208.02 537.513Z" fill="white"/>
<path d="M246.111 512.462C247.012 522.373 241.567 546.684 237.14 563.753C235.446 570.285 230.458 575.339 223.721 575.733C217.378 576.105 209.495 576.012 201.759 575.701M201.759 575.701C196.196 575.477 203.955 564.662 209.117 556.437C212.671 550.775 210.04 543.886 208.02 537.513C197.238 503.497 199.193 426.646 231.558 415.442L232.251 415.285M201.759 575.701C200.373 599.435 200.511 648.29 212.154 653.834C223.796 659.378 247.035 660.764 257.199 660.764C268.749 660.302 292.958 657.715 297.393 651.062M297.393 651.062C301.828 644.409 301.089 619.646 300.165 608.096M297.393 651.062C308.943 654.527 336.34 659.932 353.526 653.834C370.712 647.736 378.705 592.619 380.553 565.823C380.659 561.722 380.632 556.848 380.419 551.444M350.754 454.249C372.354 475.38 379.239 521.533 380.419 551.444M339.666 411.904C374.565 433.633 425.982 503.23 417.702 544.354C416.889 548.389 413.647 551.386 409.604 552.162C402.154 553.591 391.012 554.421 380.419 551.444M339.666 411.904C360.914 402.304 377.703 386.948 384.711 378.713C400.419 351.224 390.028 333.3 361.732 268.852C335.148 208.301 300.056 229.583 268.178 236.282C239.764 243.674 164.804 256.381 180.167 329.84C193.662 394.369 198.184 403.973 232.251 415.285M339.666 411.904C332.9 414.96 325.682 417.433 318.183 418.906M246.111 418.906C241.942 418.137 237.252 416.945 232.251 415.285" stroke="black" stroke-width="2.772" stroke-linecap="round" stroke-linejoin="round"/>
<ellipse cx="18.711" cy="9.00902" rx="18.711" ry="9.00902" transform="matrix(-0.99999 0.00440796 0.00440794 0.99999 349.715 372.563)" fill="url(#paint0_radial_3944_2106)"/>
<ellipse cx="18.711" cy="9.00902" rx="18.711" ry="9.00902" transform="matrix(-0.986779 -0.162069 -0.162068 0.98678 277.631 369.667)" fill="url(#paint1_radial_3944_2106)"/>
<path d="M273.427 360.223L274.787 354.562C275.07 353.38 276.77 353.432 276.981 354.629C278.055 360.722 277.6 366.986 275.657 372.859L275.149 374.392C274.859 375.269 273.6 375.213 273.389 374.313C272.302 369.678 272.315 364.853 273.427 360.223Z" fill="black" stroke="black" stroke-width="2.772" stroke-linecap="round" stroke-linejoin="round"/>
<path d="M317.916 362.721L320.102 357.324C320.558 356.198 322.231 356.501 322.262 357.717C322.419 363.901 321.038 370.028 318.243 375.548L317.514 376.988C317.096 377.813 315.859 377.57 315.784 376.649C315.399 371.904 316.129 367.134 317.916 362.721Z" fill="black" stroke="black" stroke-width="2.772" stroke-linecap="round" stroke-linejoin="round"/>
<path fill-rule="evenodd" clip-rule="evenodd" d="M334.389 228.671C369.457 252.925 395.618 290.37 396.375 333.002C396.642 347.997 394.893 363.284 389.503 376.27C377.64 404.852 356.051 410.014 348.72 411.78C346.712 412.263 347.27 413.606 348.835 414.954L368.893 432.247C383.846 445.138 395.93 461.052 403.408 479.324C412.883 502.475 423.549 531.351 419.939 534.961C414.395 540.505 390.371 539.581 379.052 538.426C380.669 548.821 382.933 572.383 379.052 583.471C374.201 597.331 203.723 592.48 201.644 590.401C200.155 588.912 200.776 582.13 201.42 577.907C201.541 577.114 202.228 576.541 203.03 576.541C211.788 576.541 220.542 575.885 228.716 572.739C256.264 562.136 318.868 532.361 321.543 520.325L234.313 550.576C202.843 559.29 187.355 532.632 185.035 504.364C184.407 496.705 185.528 489.007 187.468 481.571C198.24 440.288 215.165 421.692 226.592 418.557C180.049 397.749 180.217 380.427 173.868 357.561L173.868 330.531C170.616 289.455 193.726 250.824 231.456 234.264L283.699 211.335C294.965 205.305 314.906 215.195 334.389 228.671ZM289.018 259.846C289.018 259.846 310.935 264.714 318.807 272.287C326.498 279.684 335.028 291.02 352.774 317.365C365.5 339.905 364.527 367.675 350.253 389.269L346.481 394.975C330.015 402.421 311.291 421.993 296.469 421.964C289.17 421.949 282.369 417.955 275.328 416.032C191.961 393.263 226.793 321.699 248.824 291.724C254.734 282.364 275.851 265.39 289.018 259.846Z" fill="#EAEAEA"/>
<path d="M248.824 291.724C286.697 269.373 331.417 283.283 352.774 317.365C335.028 291.02 326.498 279.684 318.807 272.287C310.935 264.714 289.018 259.846 289.018 259.846C275.851 265.39 254.734 282.364 248.824 291.724Z" fill="black"/>
<path d="M318.817 250.143C303.571 250.143 295.948 257.767 289.018 259.846M362.219 391.739C359.082 392.697 349.285 393.707 346.481 394.975M346.481 394.975C330.015 402.421 311.291 421.993 296.469 421.964V421.964C289.17 421.949 282.369 417.955 275.328 416.032C191.961 393.263 226.793 321.699 248.824 291.724M346.481 394.975L350.253 389.269C364.527 367.675 365.5 339.905 352.774 317.365V317.365M352.774 317.365C331.417 283.283 286.697 269.373 248.824 291.724M352.774 317.365C335.028 291.02 326.498 279.684 318.807 272.287C310.935 264.714 289.018 259.846 289.018 259.846V259.846M289.018 259.846C275.851 265.39 254.734 282.364 248.824 291.724M254.366 257.784C260.603 232.836 264.281 221.729 283.699 211.335M283.699 211.335C294.965 205.305 314.906 215.195 334.389 228.671C369.457 252.925 395.618 290.37 396.375 333.002C396.642 347.997 394.893 363.284 389.503 376.27C377.64 404.852 356.051 410.014 348.72 411.78C346.712 412.263 347.27 413.606 348.835 414.954L368.893 432.247C383.846 445.138 395.93 461.052 403.408 479.324C412.883 502.475 423.549 531.351 419.939 534.961C414.395 540.505 390.371 539.581 379.052 538.426M283.699 211.335L231.456 234.264C193.726 250.824 170.616 289.455 173.868 330.531V330.531L173.868 357.561M173.868 357.561C180.217 380.427 180.049 397.749 226.592 418.557M173.868 357.561L176.522 349.158C178.981 341.375 182.122 333.825 185.909 326.595L187.84 322.908M226.592 418.557L237.68 412.925M226.592 418.557C215.165 421.692 198.24 440.288 187.468 481.571C185.528 489.007 184.407 496.705 185.035 504.364C187.355 532.632 202.843 559.29 234.313 550.576L321.543 520.325M262.86 426.764C266.067 426.538 271.29 426.901 276.093 428.811M286.068 437.925C284.126 433.301 280.268 430.472 276.093 428.811M276.093 428.811C273.734 442.875 270.199 473.484 274.928 483.413M312.383 436.442C314.071 433.975 317.372 430.058 321.543 426.764M333.421 421.016C329.142 421.682 325.037 424.004 321.543 426.764M321.543 426.764C323.809 437.977 328.031 463.965 326.787 478.216M321.543 520.325C325.932 507.62 253.838 517.301 250.813 499.701M321.543 520.325C318.868 532.361 256.264 562.136 228.716 572.739C220.542 575.885 211.788 576.541 203.03 576.541V576.541V576.541C202.228 576.541 201.541 577.114 201.42 577.907C200.776 582.13 200.155 588.912 201.644 590.401C203.723 592.48 374.201 597.331 379.052 583.471C382.933 572.383 380.669 548.821 379.052 538.426M379.052 538.426C379.309 519.062 374.521 475.183 353.306 454.573" stroke="black" stroke-width="2.772" stroke-linecap="round" stroke-linejoin="round"/>
<path d="M314.606 525.014L247.976 548.317C242.102 550.371 236.295 545.085 237.788 539.045L239.91 530.465C240.937 526.312 241.149 521.998 240.535 517.764L239.048 507.504C238.834 506.021 239.174 504.511 240.005 503.265L242.253 499.893C243.479 498.054 246.156 497.979 247.483 499.748C247.862 500.254 248.066 500.879 248.183 501.501C251.11 517.01 302.522 512.807 317.225 518.153C321.208 519.602 318.607 523.615 314.606 525.014Z" fill="#EAEAEA"/>
<path d="M379.054 540.945C380.671 551.34 382.934 574.902 379.054 585.99M240.535 517.764L239.048 507.504C238.834 506.021 239.174 504.511 240.005 503.265L242.253 499.893C243.479 498.054 246.156 497.979 247.483 499.748V499.748C247.862 500.254 248.066 500.879 248.183 501.501C251.11 517.01 302.522 512.807 317.225 518.153C321.208 519.602 318.607 523.615 314.606 525.014L247.976 548.317C242.102 550.371 236.295 545.085 237.788 539.045L239.91 530.465C240.937 526.312 241.149 521.998 240.535 517.764Z" stroke="#EAEAEA" stroke-width="2.772" stroke-linecap="round" stroke-linejoin="round"/>
<path d="M285.082 530.365V532.939C285.082 533.427 285.404 533.857 285.872 533.994L289.007 534.917C289.456 535.049 289.942 534.878 290.217 534.5C305.428 513.529 323.658 502.293 332.026 498.76C332.647 498.498 332.909 497.758 332.579 497.17L331.137 494.607C330.897 494.181 330.411 493.958 329.944 494.102C319.303 497.381 296.174 518.764 285.394 529.598C285.189 529.804 285.082 530.075 285.082 530.365Z" fill="#276F85" stroke="#276F85" stroke-width="0.55"/>
<path fill-rule="evenodd" clip-rule="evenodd" d="M331.328 497.94L329.928 495.451C329.618 494.9 329.835 494.202 330.402 493.924L343.658 487.421C343.838 487.333 343.99 487.198 344.098 487.03L371.246 444.951C371.367 444.763 371.54 444.615 371.751 444.538C376.614 442.761 387.851 443.494 396.457 460.061C405.257 477.001 401.591 482.886 398.657 483.711L344.083 493.036C343.983 493.053 343.886 493.084 343.795 493.127L332.761 498.393C332.238 498.643 331.612 498.445 331.328 497.94ZM369.335 458.238C369.835 457.442 371.06 457.592 371.397 458.47C372.111 460.334 373.116 462.601 374.406 465.012C375.41 466.889 376.586 468.854 377.931 470.787C380 473.761 382.47 476.657 385.328 479.037C385.979 479.579 385.73 480.675 384.898 480.834L380.507 481.672L373.907 482.931L366.207 484.4L353.564 486.813C352.62 486.993 351.915 485.961 352.427 485.147L355.92 479.587L358.507 475.47L360.758 471.887L362.659 468.862L365.078 465.012L367.152 461.712L369.335 458.238ZM376.947 448.255C376.268 447.952 375.524 448.443 375.537 449.186C375.677 457.233 379.671 471.879 395.037 477.458C395.735 477.711 396.457 477.181 396.425 476.439C395.729 460.465 384.001 451.401 376.947 448.255Z" fill="#276F85"/>
<path d="M355.92 479.587L352.427 485.147C351.915 485.961 352.62 486.993 353.564 486.813L366.207 484.4L355.92 479.587Z" fill="#89B3BF"/>
<path d="M358.507 475.47L373.907 482.931L380.507 481.672L360.758 471.887L358.507 475.47Z" fill="#89B3BF"/>
<path d="M362.659 468.862L385.328 479.037C382.47 476.657 380 473.761 377.931 470.787L365.078 465.012L362.659 468.862Z" fill="#89B3BF"/>
<path d="M371.397 458.47C371.06 457.592 369.835 457.442 369.335 458.238L367.152 461.712L374.406 465.012C373.116 462.601 372.111 460.334 371.397 458.47Z" fill="#89B3BF"/>
<path d="M355.92 479.587L366.207 484.4L373.907 482.931L358.507 475.47L355.92 479.587Z" fill="white"/>
<path d="M380.507 481.672L384.898 480.834C385.73 480.675 385.979 479.579 385.328 479.037L362.659 468.862L360.758 471.887L380.507 481.672Z" fill="white"/>
<path d="M365.078 465.012L377.931 470.787C376.586 468.854 375.41 466.889 374.406 465.012L367.152 461.712L365.078 465.012Z" fill="white"/>
<path d="M376.947 448.255C376.268 447.952 375.524 448.443 375.537 449.186C375.677 457.233 379.671 471.879 395.037 477.458C395.735 477.711 396.457 477.181 396.425 476.439C395.729 460.465 384.001 451.401 376.947 448.255Z" fill="#89B3BF"/>
<path d="M331.328 497.94L329.928 495.451M331.328 497.94C331.612 498.445 332.238 498.643 332.761 498.393M331.328 497.94V497.94C331.612 498.445 332.238 498.643 332.761 498.393V498.393M329.928 495.451C329.618 494.9 329.835 494.202 330.402 493.924M329.928 495.451V495.451C329.618 494.9 329.835 494.202 330.402 493.924V493.924M330.402 493.924L343.658 487.421M343.658 487.421C343.838 487.333 343.99 487.198 344.098 487.03M343.658 487.421V487.421C343.838 487.333 343.99 487.198 344.098 487.03V487.03M344.098 487.03L371.246 444.951M371.246 444.951C371.367 444.763 371.54 444.615 371.751 444.538M371.246 444.951V444.951C371.366 444.764 371.542 444.614 371.751 444.538V444.538M371.751 444.538C376.614 442.761 387.851 443.494 396.457 460.061C405.257 477.001 401.591 482.886 398.657 483.711L344.083 493.036M344.083 493.036C343.983 493.053 343.886 493.084 343.795 493.127M344.083 493.036V493.036C343.983 493.053 343.886 493.084 343.795 493.127V493.127M343.795 493.127L332.761 498.393M355.92 479.587L352.427 485.147C351.915 485.961 352.62 486.993 353.564 486.813L366.207 484.4M355.92 479.587L366.207 484.4M355.92 479.587L358.507 475.47M366.207 484.4L373.907 482.931M358.507 475.47L373.907 482.931M358.507 475.47L360.758 471.887M373.907 482.931L380.507 481.672M360.758 471.887L380.507 481.672M360.758 471.887L362.659 468.862M380.507 481.672L384.898 480.834C385.73 480.675 385.979 479.579 385.328 479.037V479.037M362.659 468.862L385.328 479.037M362.659 468.862L365.078 465.012M385.328 479.037C382.47 476.657 380 473.761 377.931 470.787M365.078 465.012L377.931 470.787M365.078 465.012L367.152 461.712M377.931 470.787C376.586 468.854 375.41 466.889 374.406 465.012M367.152 461.712L369.335 458.238C369.835 457.442 371.06 457.592 371.397 458.47C372.111 460.334 373.116 462.601 374.406 465.012M367.152 461.712L374.406 465.012M395.037 477.458C379.671 471.879 375.677 457.233 375.537 449.186C375.524 448.443 376.268 447.952 376.947 448.255C384.001 451.401 395.729 460.465 396.425 476.439C396.457 477.181 395.735 477.711 395.037 477.458Z" stroke="#276F85" stroke-width="0.55"/>
<path d="M357.019 478.797L353.526 484.357C353.015 485.171 353.719 486.203 354.663 486.023L367.307 483.61L357.019 478.797Z" fill="#89B3BF"/>
<path d="M359.607 474.679L375.007 482.141L381.607 480.881L361.858 471.097L359.607 474.679Z" fill="#89B3BF"/>
<path d="M363.758 468.072L386.428 478.247C383.569 475.867 381.099 472.97 379.03 469.997L366.177 464.222L363.758 468.072Z" fill="#89B3BF"/>
<path d="M372.496 457.68C372.16 456.802 370.934 456.652 370.434 457.448L368.251 460.922L375.505 464.222C374.215 461.81 373.21 459.544 372.496 457.68Z" fill="#89B3BF"/>
<path d="M357.019 478.797L367.307 483.61L375.007 482.141L359.607 474.679L357.019 478.797Z" fill="white"/>
<path d="M381.607 480.881L385.998 480.043C386.829 479.885 387.078 478.789 386.428 478.247L363.758 468.072L361.858 471.097L381.607 480.881Z" fill="white"/>
<path d="M366.177 464.222L379.03 469.997C377.685 468.064 376.509 466.099 375.505 464.222L368.251 460.922L366.177 464.222Z" fill="white"/>
<path d="M357.019 478.797L353.526 484.357C353.015 485.171 353.719 486.203 354.663 486.023L367.307 483.61M357.019 478.797L367.307 483.61M357.019 478.797L359.607 474.679M367.307 483.61L375.007 482.141M359.607 474.679L375.007 482.141M359.607 474.679L361.858 471.097M375.007 482.141L381.607 480.881M361.858 471.097L381.607 480.881M361.858 471.097L363.758 468.072M381.607 480.881L385.997 480.043C386.829 479.885 387.078 478.789 386.428 478.247V478.247M363.758 468.072L386.428 478.247M363.758 468.072L366.177 464.222M386.428 478.247C383.569 475.867 381.099 472.97 379.03 469.997M366.177 464.222L379.03 469.997M366.177 464.222L368.251 460.922M379.03 469.997C377.685 468.064 376.509 466.099 375.505 464.222M368.251 460.922L370.434 457.448C370.934 456.652 372.16 456.802 372.496 457.68C373.21 459.544 374.215 461.81 375.505 464.222M368.251 460.922L375.505 464.222" stroke="#89B3BF" stroke-width="0.55"/>
<defs>
<radialGradient id="paint0_radial_3944_2106" cx="0" cy="0" r="1" gradientUnits="userSpaceOnUse" gradientTransform="translate(18.711 9.00902) rotate(90) scale(9.00902 18.711)">
<stop stop-color="#F6C3BE" stop-opacity="0.6"/>
<stop offset="1" stop-color="#F6CDC9" stop-opacity="0"/>
</radialGradient>
<radialGradient id="paint1_radial_3944_2106" cx="0" cy="0" r="1" gradientUnits="userSpaceOnUse" gradientTransform="translate(18.711 9.00902) rotate(90) scale(9.00902 18.711)">
<stop stop-color="#F6C3BE" stop-opacity="0.6"/>
<stop offset="1" stop-color="#F6CDC9" stop-opacity="0"/>
</radialGradient>
</defs>
</svg>
